<svg width="230" height="230" viewBox="0 0 230 230" fill="none" xmlns="http://www.w3.org/2000/svg">
<path d="M120.478 229.87C118.662 229.955 116.836 230 115 230C51.4873 230 0 178.513 0 115C0 113.163 0.0437578 111.337 0.128906 109.521L120.478 229.87ZM131.912 228.763C128.592 229.252 125.226 229.6 121.82 229.799L0.200195 108.179C0.399431 104.773 0.746996 101.407 1.23633 98.0869L131.912 228.763ZM142.405 226.713C139.362 227.457 136.271 228.079 133.139 228.575L1.42383 96.8604C1.92023 93.7276 2.54214 90.6369 3.28613 87.5938L142.405 226.713ZM151.173 224.192C148.665 225.023 146.119 225.772 143.537 226.431L3.56836 86.4619C4.22745 83.8807 4.97624 81.3352 5.80664 78.8271L151.173 224.192ZM160.268 220.745C157.638 221.872 154.958 222.904 152.231 223.837L6.16113 77.7676C7.09359 75.0411 8.12665 72.3612 9.25391 69.7314L160.268 220.745ZM168.753 216.688C166.304 217.985 163.803 219.196 161.254 220.317L9.68164 68.7451C10.8029 66.1957 12.0136 63.6946 13.3105 61.2461L168.753 216.688ZM175.913 212.56C173.875 213.835 171.795 215.047 169.674 216.195L13.8037 60.3252C14.9518 58.2047 16.1646 56.1244 17.4395 54.0869L175.913 212.56ZM183.37 207.476C181.229 209.061 179.031 210.575 176.779 212.012L17.9873 53.2197C19.4242 50.9681 20.9377 48.7702 22.5234 46.6289L183.37 207.476ZM190.331 201.894C188.34 203.622 186.287 205.28 184.179 206.87L23.1289 45.8203C24.7187 43.7124 26.3775 41.6594 28.1055 39.668L190.331 201.894ZM196.179 196.453C194.529 198.097 192.83 199.691 191.084 201.232L28.7666 38.915C30.3083 37.1691 31.9013 35.4695 33.5449 33.8203L196.179 196.453ZM202.219 189.951C200.506 191.943 198.726 193.875 196.883 195.744L34.2549 33.1162C36.1242 31.2728 38.0564 29.4932 40.0479 27.7803L202.219 189.951ZM207.774 182.965C206.21 185.097 204.575 187.173 202.871 189.189L40.8096 27.1279C42.8261 25.4236 44.9033 23.789 47.0352 22.2246L207.774 182.965ZM212.348 176.249C211.081 178.257 209.754 180.223 208.369 182.145L47.8545 21.6299C49.7762 20.2455 51.7419 18.9185 53.75 17.6523L212.348 176.249ZM216.931 168.291C215.666 170.705 214.318 173.069 212.891 175.378L54.6201 17.1084C56.9299 15.6807 59.2944 14.3333 61.709 13.0684L216.931 168.291ZM220.957 159.774C219.866 162.352 218.684 164.882 217.415 167.36L62.6387 12.584C65.1165 11.3146 67.6466 10.1327 70.2246 9.04199L220.957 159.774ZM224.056 151.585C223.239 154.019 222.345 156.418 221.373 158.776L71.2227 8.62598C73.5813 7.65425 75.9797 6.7597 78.4141 5.94336L224.056 151.585ZM226.85 141.837C226.147 144.778 225.331 147.674 224.407 150.522L79.4766 5.5918C82.3246 4.66772 85.2215 3.85242 88.1621 3.14941L226.85 141.837ZM228.853 131.297C228.402 134.472 227.822 137.605 227.118 140.691L89.3076 2.88086C92.3937 2.17661 95.5271 1.59692 98.7021 1.14648L228.853 131.297ZM229.846 121.003C229.689 124.052 229.411 127.07 229.021 130.052L99.9473 0.977539C102.929 0.587699 105.947 0.31015 108.996 0.15332L229.846 121.003ZM115 0C178.513 0 230 51.4873 230 115C230 116.557 229.968 118.107 229.906 119.648L110.35 0.0927734C111.892 0.0314256 113.442 0 115 0Z" fill="url(#paint0_linear_37_196)" fill-opacity="0.4"/>
<defs>
<linearGradient id="paint0_linear_37_196" x1="46.4035" y1="25.2193" x2="180.57" y2="209.32" gradientUnits="userSpaceOnUse">
<stop stop-color="#ED7B50"/>
<stop offset="0.541667" stop-color="#488AEA"/>
<stop offset="1" stop-color="#2C2C2C"/>
</linearGradient>
</defs>
</svg>
